<svg version="1.1" id="Layer_1" xmlns="http://www.w3.org/2000/svg" xmlns:xlink="http://www.w3.org/1999/xlink" x="0px" y="0px"
	 width="100%" viewBox="0 0 500 500" enable-background="new 0 0 500 500" xml:space="preserve">
<path fill="#000000" opacity="1.000000" stroke="none" 
	d="
M223.000000,501.000000 
	C148.666687,501.000000 74.833366,501.000000 1.000040,501.000000 
	C1.000026,334.333405 1.000026,167.666779 1.000013,1.000129 
	C167.666565,1.000086 334.333130,1.000086 500.999756,1.000043 
	C500.999847,167.666534 500.999847,334.333069 500.999939,500.999817 
	C408.500000,501.000000 316.000000,501.000000 223.000000,501.000000 
M364.672028,228.535461 
	C364.137787,228.400650 363.603577,228.265839 362.402771,227.789612 
	C357.151062,226.529617 351.957977,224.778625 346.631744,224.142746 
	C340.894135,223.457733 334.995972,223.384338 329.235413,223.860840 
	C324.767090,224.230453 320.402679,225.856277 315.285736,226.996017 
	C313.840332,227.654114 312.394897,228.312210 311.005035,228.988739 
	C311.005035,228.988739 310.975616,228.938095 310.275146,229.008347 
	C308.840332,229.665131 307.405487,230.321915 306.000061,231.003784 
	C306.000061,231.003784 305.994293,230.965698 305.411652,231.052628 
	C304.931702,231.357147 304.451752,231.661667 303.984924,231.984787 
	C303.984924,231.984787 303.962555,231.958740 303.273621,232.068192 
	C297.505402,237.008392 291.737183,241.948578 285.451202,247.327179 
	C279.147339,255.317169 274.335693,264.049988 272.025940,274.801849 
	C271.952454,275.526520 271.878937,276.251221 271.345520,277.343597 
	C271.283081,277.913422 271.220642,278.483246 271.079742,279.900543 
	C271.030396,281.606781 270.981049,283.313049 271.017670,285.017914 
	C271.017670,285.017914 271.018097,284.931946 270.078125,285.008118 
	C263.373291,285.335205 256.668457,285.662323 249.273087,286.079895 
	C248.810928,287.574219 247.516663,289.755371 248.063004,290.417267 
	C249.139755,291.721802 251.206970,292.798157 252.918167,292.882629 
	C258.799408,293.172943 264.703796,292.994202 269.755157,292.994202 
	C271.402710,298.987305 272.781494,304.002777 274.067963,309.767181 
	C277.335938,319.443726 282.371277,328.014801 290.204285,335.633759 
	C296.289917,341.405334 302.548462,346.910583 311.375854,349.682312 
	C324.362122,356.018951 338.154785,356.440735 351.844940,353.735535 
	C361.421631,351.843170 370.723602,348.227814 378.740540,341.006165 
	C386.467712,335.032715 392.973511,328.036621 397.666077,318.610504 
	C399.234894,314.501251 400.987183,310.449799 402.306915,306.262054 
	C403.162384,303.547668 404.670502,302.826141 407.337372,302.920959 
	C412.452728,303.102844 417.591156,303.183350 422.697784,302.902069 
	C427.343231,302.646179 431.261353,300.806641 433.637451,295.614288 
	C438.521698,283.405182 430.371643,274.135132 420.548187,274.961761 
	C414.768707,275.448120 408.909271,274.984070 403.019623,274.177765 
	C400.295105,267.789337 397.570618,261.400909 394.653229,254.368469 
	C388.714172,244.837952 380.928162,237.244736 370.695770,231.422638 
	C370.171661,231.270950 369.647583,231.119263 368.688049,230.459869 
	C367.462494,229.966934 366.236938,229.473999 364.998779,228.998779 
	C364.998779,228.998779 365.015106,228.987976 364.672028,228.535461 
M69.968002,298.045502 
	C69.968002,298.045502 69.968834,298.072052 70.224716,298.624542 
	C71.151939,299.373871 72.079155,300.123199 73.696136,301.237427 
	C78.181725,301.818115 82.745140,303.216522 87.135704,302.798706 
	C94.815643,302.067902 100.523720,303.270508 101.999725,312.776276 
	C105.362022,322.427155 111.043282,330.467896 119.097473,337.517548 
	C119.385849,337.729889 119.674225,337.942230 120.230003,338.699066 
	C121.131790,339.491638 122.033585,340.284241 123.351379,341.617889 
	C139.336853,352.837311 156.890320,357.614594 176.282516,353.996216 
	C188.602692,351.697418 199.936676,347.090454 209.655212,337.778381 
	C217.614090,330.672455 223.399841,322.094452 227.629730,311.589539 
	C230.649933,302.625671 232.180115,293.489441 230.942108,283.159424 
	C229.575058,277.114136 228.208008,271.068878 226.691849,264.386139 
	C226.076492,263.230988 225.461136,262.075867 224.729965,260.466675 
	C224.545242,260.203491 224.306747,260.004852 223.965073,259.394012 
	C223.965073,259.394012 223.860397,258.926331 223.744843,258.473358 
	C223.558411,258.208405 223.312088,258.022949 222.928818,257.217346 
	C218.631134,251.779861 214.333435,246.342377 209.697052,240.327667 
	C203.234467,236.201874 197.122101,231.324203 190.232574,228.114990 
	C177.871368,222.357056 164.576828,221.386993 151.266357,224.132248 
	C138.025497,226.863159 126.039925,232.297867 116.382042,243.208328 
	C107.413933,251.303940 102.420273,261.688538 98.886375,273.860504 
	C97.390007,274.256714 95.902939,274.946625 94.395531,274.994415 
	C89.770287,275.141022 85.136894,275.074829 80.507309,275.028748 
	C75.285393,274.976746 71.206306,276.952087 68.755966,281.683655 
	C66.268623,286.486694 65.719147,291.328094 69.053017,296.561371 
	C69.053017,296.561371 69.169960,297.035187 69.220245,297.494873 
	C69.380249,297.783569 69.621422,297.963501 69.968002,298.045502 
M87.508293,247.123245 
	C87.204414,247.324066 87.087250,247.603241 86.840828,248.606171 
	C85.530373,251.430511 83.826599,254.156464 83.084473,257.123016 
	C82.741508,258.493958 84.275719,260.334564 84.958839,261.962219 
	C86.415916,261.334534 88.559891,261.108978 89.205505,260.006165 
	C91.436676,256.195160 93.145767,252.078476 95.606171,247.655029 
	C99.781967,239.112091 103.957771,230.569138 108.694969,221.635132 
	C111.183723,216.432404 113.672470,211.229675 116.701462,205.617081 
	C119.181831,200.427429 121.662201,195.237793 124.676018,189.619034 
	C127.838448,183.431580 131.000885,177.244125 134.685089,170.615616 
	C136.904861,166.258621 139.124649,161.901627 141.413437,157.409164 
	C142.236633,158.013351 142.703827,158.236771 143.008530,158.597458 
	C149.402298,166.166061 155.624084,173.890274 162.296005,181.204147 
	C163.520065,182.545990 166.557709,182.233429 168.758224,182.684525 
	C168.790100,180.926941 169.583511,178.546127 168.734863,177.509140 
	C161.094635,168.173401 153.225311,159.021912 145.288864,149.933670 
	C142.682083,146.948593 138.130585,147.118927 136.501724,150.255280 
	C133.149872,156.709183 130.107315,163.323700 126.411263,170.329926 
	C123.587883,176.207443 120.764511,182.084976 117.411224,188.389832 
	C114.925926,193.223831 112.440636,198.057831 109.407135,203.324646 
	C106.256813,209.854843 103.106491,216.385040 99.388962,223.322632 
	C95.571930,231.189026 91.754906,239.055435 87.960899,246.947556 
	C87.960899,246.947556 87.951019,246.939514 87.508293,247.123245 
M388.059479,210.726913 
	C391.006561,216.165604 393.953613,221.604294 397.042236,227.755188 
	C400.343536,234.198700 403.644836,240.642212 407.039520,247.801147 
	C409.734314,252.732407 410.873718,258.701965 415.873779,261.981476 
	C419.726746,260.000000 419.909576,257.528259 418.190155,254.415207 
	C415.723145,249.948685 413.415039,245.394394 410.966766,240.163895 
	C408.005005,234.425537 405.043274,228.687195 401.971893,222.233139 
	C399.591461,217.496948 397.211029,212.760757 394.674072,207.347626 
	C391.732056,201.570190 388.790070,195.792755 385.679779,189.343353 
	C383.151123,184.548782 380.622467,179.754211 377.970856,174.245865 
	C374.299011,166.814819 370.660370,159.367126 366.943817,151.958496 
	C364.405975,146.899567 361.843842,146.413879 357.911224,150.693542 
	C352.769257,156.289291 347.952209,162.184967 343.031891,167.982605 
	C340.466644,171.005249 337.649323,173.896072 335.631592,177.257965 
	C334.897919,178.480408 336.155426,180.897949 336.504425,182.770248 
	C338.052246,182.403229 339.985077,182.488876 341.064301,181.570908 
	C343.050018,179.881973 344.501556,177.574982 346.232605,175.574799 
	C351.182861,169.854828 356.161652,164.159546 361.359863,158.189682 
	C365.365387,165.762131 369.142456,172.902679 373.059875,180.749252 
	C375.017456,184.502716 376.975006,188.256180 379.055084,192.726639 
	C382.009644,198.494110 384.964172,204.261581 388.059479,210.726913 
z"/>
<path fill="#562717" opacity="1.000000" stroke="none" 
	d="
M116.952484,242.841431 
	C126.039925,232.297867 138.025497,226.863159 151.266357,224.132248 
	C164.576828,221.386993 177.871368,222.357056 190.232574,228.114990 
	C197.122101,231.324203 203.234467,236.201874 209.784302,240.914856 
	C208.215500,241.391083 206.559418,241.280151 204.472977,241.140381 
	C204.293304,241.701004 203.957077,242.750183 203.309052,243.623520 
	C187.882019,232.212204 171.204788,227.329071 152.422287,231.017014 
	C140.873764,233.284592 131.076385,239.002594 121.935036,246.144623 
	C120.141586,244.871811 118.547035,243.856628 116.952484,242.841431 
z"/>
<path fill="#8D4E2F" opacity="1.000000" stroke="none" 
	d="
M209.048035,338.058075 
	C199.936676,347.090454 188.602692,351.697418 176.282516,353.996216 
	C156.890320,357.614594 139.336853,352.837311 123.245094,341.013519 
	C124.095879,338.594971 125.052948,336.780792 126.336472,335.075073 
	C136.765015,342.603088 147.891953,347.261536 160.537506,348.047607 
	C176.910049,349.065369 191.117142,343.597656 204.165634,334.119110 
	C205.935135,335.603363 207.491592,336.830719 209.048035,338.058075 
z"/>
<path fill="#59291B" opacity="1.000000" stroke="none" 
	d="
M372.919525,180.043213 
	C369.142456,172.902679 365.365387,165.762131 361.359863,158.189682 
	C356.161652,164.159546 351.182861,169.854828 346.232605,175.574799 
	C344.501556,177.574982 343.050018,179.881973 341.064301,181.570908 
	C339.985077,182.488876 338.052246,182.403229 336.504456,182.770233 
	C336.155426,180.897949 334.897919,178.480408 335.631592,177.257965 
	C337.649323,173.896072 340.466644,171.005249 343.031891,167.982605 
	C347.952209,162.184967 352.769257,156.289291 357.911224,150.693542 
	C361.843842,146.413879 364.405975,146.899567 366.943817,151.958496 
	C370.660370,159.367126 374.299011,166.814819 377.718750,174.580322 
	C375.950958,176.624268 374.435242,178.333740 372.919525,180.043213 
z"/>
<path fill="#59291B" opacity="1.000000" stroke="none" 
	d="
M126.937469,169.872101 
	C130.107315,163.323700 133.149872,156.709183 136.501724,150.255280 
	C138.130585,147.118927 142.682083,146.948593 145.288864,149.933670 
	C153.225311,159.021912 161.094635,168.173401 168.734863,177.509140 
	C169.583511,178.546127 168.790100,180.926941 168.758209,182.684525 
	C166.557709,182.233429 163.520065,182.545990 162.296005,181.204147 
	C155.624084,173.890274 149.402298,166.166061 143.008530,158.597458 
	C142.703827,158.236771 142.236633,158.013351 141.413437,157.409164 
	C139.124649,161.901627 136.904861,166.258621 134.096313,170.888672 
	C130.854568,173.090454 128.637741,172.797058 126.937469,169.872101 
z"/>
<path fill="#8F4E2F" opacity="1.000000" stroke="none" 
	d="
M378.050964,341.106964 
	C370.723602,348.227814 361.421631,351.843170 351.844940,353.735535 
	C338.154785,356.440735 324.362122,356.018951 311.274475,349.060242 
	C312.447388,346.991821 313.721680,345.545441 315.373413,344.120697 
	C334.657806,351.152679 352.681244,348.794159 370.069458,339.353302 
	C371.199371,342.528900 372.740021,341.471466 374.649200,340.509064 
	C375.473267,340.093658 376.898712,340.871277 378.050964,341.106964 
z"/>
<path fill="#542414" opacity="1.000000" stroke="none" 
	d="
M315.992096,226.923721 
	C320.402679,225.856277 324.767090,224.230453 329.235413,223.860840 
	C334.995972,223.384338 340.894135,223.457733 346.631744,224.142746 
	C351.957977,224.778625 357.151062,226.529617 362.934875,228.145874 
	C363.983032,228.664078 364.499054,228.826019 365.015106,228.987976 
	C365.015106,228.987976 364.998779,228.998779 365.116486,229.329041 
	C366.530609,230.095398 367.827057,230.531479 369.123474,230.967575 
	C369.647583,231.119263 370.171661,231.270950 370.874603,232.045105 
	C370.892365,234.857910 370.731293,237.048248 370.242859,239.159912 
	C364.470459,236.718307 359.208344,233.704559 353.546417,232.113678 
	C336.084686,227.207321 319.577454,230.016983 304.161377,239.213181 
	C304.062866,236.528275 304.012695,234.243500 303.962524,231.958740 
	C303.962555,231.958740 303.984924,231.984787 304.268616,231.937592 
	C305.032990,231.582138 305.513641,231.273911 305.994293,230.965698 
	C305.994293,230.965698 306.000061,231.003784 306.375610,230.996628 
	C308.159302,230.305679 309.567444,229.621887 310.975616,228.938095 
	C310.975616,228.938095 311.005035,228.988739 311.349609,228.985565 
	C313.126831,228.296158 314.559448,227.609940 315.992096,226.923721 
z"/>
<path fill="#6E3822" opacity="1.000000" stroke="none" 
	d="
M403.085785,274.947449 
	C408.909271,274.984070 414.768707,275.448120 420.548187,274.961761 
	C430.371643,274.135132 438.521698,283.405182 433.072693,295.564453 
	C430.986237,294.501831 429.464569,293.489014 427.970978,292.118774 
	C428.618103,285.772064 427.030457,282.361664 422.495239,281.993683 
	C416.512543,281.508270 410.460785,281.874329 403.811920,281.874329 
	C403.811920,286.493378 403.811920,290.741089 403.451630,295.068542 
	C401.195923,295.779205 399.300507,296.410095 397.418640,296.576813 
	C397.171906,289.783752 396.911530,283.454926 396.897095,276.931091 
	C399.123962,276.139893 401.104858,275.543671 403.085785,274.947449 
z"/>
<path fill="#6E3822" opacity="1.000000" stroke="none" 
	d="
M68.957146,296.082916 
	C65.719147,291.328094 66.268623,286.486694 68.755966,281.683655 
	C71.206306,276.952087 75.285393,274.976746 80.507309,275.028748 
	C85.136894,275.074829 89.770287,275.141022 94.395531,274.994415 
	C95.902939,274.946625 97.390007,274.256714 99.295799,273.582703 
	C100.702141,272.538788 102.265259,271.958618 102.589378,270.971588 
	C103.546089,268.058197 105.022179,266.136963 108.249550,266.504944 
	C105.707047,274.742279 103.486923,282.631256 103.622528,291.016998 
	C101.531151,291.354279 99.815666,291.672028 98.022682,291.534668 
	C97.945190,288.005402 97.945190,284.931183 97.945190,281.595886 
	C92.089996,281.595886 86.957497,281.586731 81.825043,281.598907 
	C77.947044,281.608124 75.166306,283.292664 73.356133,286.988586 
	C70.044548,286.818146 68.097458,287.458801 68.905190,291.140717 
	C69.250801,292.716095 68.959206,294.431274 68.957146,296.082916 
z"/>
<path fill="#783F26" opacity="1.000000" stroke="none" 
	d="
M98.100174,291.989746 
	C99.815666,291.672028 101.531151,291.354279 103.741653,291.408752 
	C105.462639,297.851501 106.688606,303.922028 107.555069,309.995544 
	C105.443779,310.674805 103.691994,311.351044 101.940201,312.027283 
	C100.523720,303.270508 94.815643,302.067902 87.135704,302.798706 
	C82.745140,303.216522 78.181725,301.818115 73.320740,300.708282 
	C71.953178,299.476776 70.961006,298.774414 69.968834,298.072052 
	C69.968834,298.072052 69.968002,298.045502 69.861237,297.848816 
	C69.596741,297.411285 69.401901,297.205658 69.169960,297.035187 
	C69.169960,297.035187 69.053017,296.561371 69.005081,296.322144 
	C68.959206,294.431274 69.250801,292.716095 68.905190,291.140717 
	C68.097458,287.458801 70.044548,286.818146 73.378082,287.404175 
	C73.504128,292.478516 75.408928,295.869476 80.214569,296.230865 
	C85.951233,296.662292 91.745132,296.332581 97.706985,296.332581 
	C97.867424,294.560516 97.983803,293.275146 98.100174,291.989746 
z"/>
<path fill="#783F26" opacity="1.000000" stroke="none" 
	d="
M427.942902,292.476196 
	C429.464569,293.489014 430.986237,294.501831 432.799286,295.780823 
	C431.261353,300.806641 427.343231,302.646179 422.697784,302.902069 
	C417.591156,303.183350 412.452728,303.102844 407.337372,302.920959 
	C404.670502,302.826141 403.162384,303.547668 402.306915,306.262054 
	C400.987183,310.449799 399.234894,314.501251 397.080048,318.655212 
	C395.216431,316.944183 393.938812,315.188385 392.762054,313.091858 
	C394.376953,307.514404 395.891022,302.277710 397.405090,297.041016 
	C399.300507,296.410095 401.195923,295.779205 403.675598,295.466827 
	C408.984985,295.992859 413.719757,296.077362 418.432343,296.445892 
	C422.361786,296.753174 425.523193,295.599182 427.942902,292.476196 
z"/>
<path fill="#723922" opacity="1.000000" stroke="none" 
	d="
M274.160309,309.018250 
	C272.781494,304.002777 271.402710,298.987305 269.755157,292.994202 
	C264.703796,292.994202 258.799408,293.172943 252.918167,292.882629 
	C251.206970,292.798157 249.139755,291.721802 248.063004,290.417267 
	C247.516663,289.755371 248.810928,287.574219 250.089600,286.033905 
	C257.610107,285.635925 264.314087,285.283936 271.018097,284.931946 
	C271.018097,284.931946 271.017670,285.017914 271.211456,284.716766 
	C271.594238,282.620392 271.783203,280.825134 272.259491,278.906250 
	C274.316620,279.182831 276.086487,279.583038 277.896332,280.402161 
	C278.549591,289.206573 279.162872,297.592041 279.455994,306.058319 
	C277.477325,307.098816 275.818817,308.058533 274.160309,309.018250 
z"/>
<path fill="#82462A" opacity="1.000000" stroke="none" 
	d="
M101.969971,312.401794 
	C103.691994,311.351044 105.443779,310.674805 107.746460,310.292542 
	C112.147530,320.205566 118.549873,327.970367 126.010025,334.966644 
	C125.052948,336.780792 124.095879,338.594971 123.037094,340.742981 
	C122.033585,340.284241 121.131790,339.491638 119.952347,338.201111 
	C119.398041,337.480896 119.121391,337.258667 118.844742,337.036438 
	C111.043282,330.467896 105.362022,322.427155 101.969971,312.401794 
z"/>
<path fill="#82462A" opacity="1.000000" stroke="none" 
	d="
M392.661194,313.432617 
	C393.938812,315.188385 395.216431,316.944183 396.804504,318.880432 
	C392.973511,328.036621 386.467712,335.032715 378.395752,341.056580 
	C376.898712,340.871277 375.473267,340.093658 374.649200,340.509064 
	C372.740021,341.471466 371.199371,342.528900 370.300568,339.093170 
	C380.361420,332.356964 387.253632,323.551819 392.661194,313.432617 
z"/>
<path fill="#82462A" opacity="1.000000" stroke="none" 
	d="
M274.114136,309.392700 
	C275.818817,308.058533 277.477325,307.098816 279.612091,306.397095 
	C283.486603,316.298737 288.392609,324.995575 295.919464,332.358307 
	C293.850616,333.494568 291.863647,334.267700 289.876648,335.040863 
	C282.371277,328.014801 277.335938,319.443726 274.114136,309.392700 
z"/>
<path fill="#63301E" opacity="1.000000" stroke="none" 
	d="
M277.856323,279.983276 
	C276.086487,279.583038 274.316620,279.182831 272.056030,278.907867 
	C271.565247,279.033112 271.158203,279.053070 271.158203,279.053070 
	C271.220642,278.483246 271.283081,277.913422 271.809662,276.983093 
	C272.226807,275.775543 272.179810,274.928497 272.132812,274.081451 
	C274.335693,264.049988 279.147339,255.317169 285.777313,247.479706 
	C287.204956,249.477478 288.306519,251.322739 289.275024,253.495026 
	C283.506470,261.734192 279.293243,270.259918 277.856323,279.983276 
z"/>
<path fill="#82462A" opacity="1.000000" stroke="none" 
	d="
M209.351624,337.918213 
	C207.491592,336.830719 205.935135,335.603363 204.329086,333.834961 
	C209.482407,326.451965 214.685333,319.610046 220.081238,313.012146 
	C221.093079,313.723846 221.911911,314.191498 222.542313,314.551514 
	C223.291245,312.512024 223.948029,310.723480 225.107285,307.566620 
	C226.199753,310.086273 226.631790,311.082733 227.063828,312.079163 
	C223.399841,322.094452 217.614090,330.672455 209.351624,337.918213 
z"/>
<path fill="#5D2C1B" opacity="1.000000" stroke="none" 
	d="
M370.570221,239.238586 
	C370.731293,237.048248 370.892365,234.857910 371.046814,232.261932 
	C380.928162,237.244736 388.714172,244.837952 394.411987,254.703751 
	C392.458679,256.023102 390.746643,257.007202 388.774292,257.779907 
	C382.532745,251.458588 376.551483,245.348587 370.570221,239.238586 
z"/>
<path fill="#783F26" opacity="1.000000" stroke="none" 
	d="
M227.346771,311.834351 
	C226.631790,311.082733 226.199753,310.086273 225.107285,307.566620 
	C223.948029,310.723480 223.291245,312.512024 222.542313,314.551514 
	C221.911911,314.191498 221.093079,313.723846 220.125015,312.647644 
	C223.617401,302.682343 225.267853,293.027832 224.685593,283.011536 
	C226.973221,283.365051 228.895966,283.691925 230.818726,284.018768 
	C232.180115,293.489441 230.649933,302.625671 227.346771,311.834351 
z"/>
<path fill="#63301E" opacity="1.000000" stroke="none" 
	d="
M108.291351,266.107605 
	C105.022179,266.136963 103.546089,268.058197 102.589378,270.971588 
	C102.265259,271.958618 100.702141,272.538788 99.441307,273.193176 
	C102.420273,261.688538 107.413933,251.303940 116.667267,243.024887 
	C118.547035,243.856628 120.141586,244.871811 121.792336,246.432495 
	C117.329475,253.354523 112.810410,259.731079 108.291351,266.107605 
z"/>
<path fill="#82462A" opacity="1.000000" stroke="none" 
	d="
M87.937881,246.921844 
	C91.754906,239.055435 95.571930,231.189026 99.929062,223.325775 
	C103.023964,222.894669 105.578766,222.460434 108.133575,222.026199 
	C103.957771,230.569138 99.781967,239.112091 95.176117,247.561005 
	C92.823746,242.950867 90.213707,247.023270 87.937881,246.921844 
z"/>
<path fill="#5D2C1B" opacity="1.000000" stroke="none" 
	d="
M203.620850,243.799362 
	C203.957077,242.750183 204.293304,241.701004 204.472977,241.140381 
	C206.559418,241.280151 208.215500,241.391083 209.953644,241.203461 
	C214.333435,246.342377 218.631134,251.779861 223.078964,257.761230 
	C223.393555,258.558899 223.603989,258.765991 223.860397,258.926331 
	C223.860397,258.926331 223.965073,259.394012 224.095154,259.833435 
	C224.383682,260.535126 224.590530,260.751099 224.845764,260.920715 
	C225.461136,262.075867 226.076492,263.230988 226.416260,264.697479 
	C223.805588,264.665192 221.470474,264.321533 218.938721,263.691895 
	C213.701660,256.870392 208.661255,250.334869 203.620850,243.799362 
z"/>
<path fill="#82462A" opacity="1.000000" stroke="none" 
	d="
M402.081512,222.948853 
	C405.043274,228.687195 408.005005,234.425537 410.996124,240.889954 
	C411.025482,242.886322 411.025482,244.156631 411.025482,245.360092 
	C409.563721,245.978439 408.254913,246.532074 406.946136,247.085709 
	C403.644836,240.642212 400.343536,234.198700 397.213501,227.159698 
	C398.950348,225.359070 400.515930,224.153961 402.081512,222.948853 
z"/>
<path fill="#894C2F" opacity="1.000000" stroke="none" 
	d="
M290.040466,335.337311 
	C291.863647,334.267700 293.850616,333.494568 296.223450,332.499451 
	C302.738159,336.218018 308.867065,340.158539 314.995972,344.099091 
	C313.721680,345.545441 312.447388,346.991821 311.065125,348.770599 
	C302.548462,346.910583 296.289917,341.405334 290.040466,335.337311 
z"/>
<path fill="#59291B" opacity="1.000000" stroke="none" 
	d="
M289.408051,253.167999 
	C288.306519,251.322739 287.204956,249.477478 286.036194,247.260498 
	C291.737183,241.948578 297.505402,237.008392 303.618073,232.013458 
	C304.012695,234.243500 304.062866,236.528275 303.934570,239.433960 
	C298.973419,244.425934 294.190735,248.796967 289.408051,253.167999 
z"/>
<path fill="#6E3822" opacity="1.000000" stroke="none" 
	d="
M385.848053,190.015320 
	C388.790070,195.792755 391.732056,201.570190 394.417847,207.793915 
	C392.080658,208.836487 389.999664,209.432770 387.918701,210.029053 
	C384.964172,204.261581 382.009644,198.494110 379.366821,192.350433 
	C381.735046,191.321274 383.791534,190.668289 385.848053,190.015320 
z"/>
<path fill="#783F26" opacity="1.000000" stroke="none" 
	d="
M108.414276,221.830658 
	C105.578766,222.460434 103.023964,222.894669 100.212662,223.122070 
	C103.106491,216.385040 106.256813,209.854843 109.748764,203.452148 
	C111.027206,207.091385 113.530029,206.718399 116.161224,206.026947 
	C113.672470,211.229675 111.183723,216.432404 108.414276,221.830658 
z"/>
<path fill="#63301E" opacity="1.000000" stroke="none" 
	d="
M389.034607,257.991272 
	C390.746643,257.007202 392.458679,256.023102 394.508423,255.025757 
	C397.570618,261.400909 400.295105,267.789337 403.052704,274.562622 
	C401.104858,275.543671 399.123962,276.139893 396.651001,276.654724 
	C393.784149,270.379333 391.409363,264.185303 389.034607,257.991272 
z"/>
<path fill="#63301E" opacity="1.000000" stroke="none" 
	d="
M126.674362,170.101013 
	C128.637741,172.797058 130.854568,173.090454 133.835434,171.109192 
	C131.000885,177.244125 127.838448,183.431580 124.014427,189.819870 
	C121.548935,189.334641 119.745041,188.648575 117.941139,187.962494 
	C120.764511,182.084976 123.587883,176.207443 126.674362,170.101013 
z"/>
<path fill="#6E3822" opacity="1.000000" stroke="none" 
	d="
M219.135376,263.977905 
	C221.470474,264.321533 223.805588,264.665192 226.490829,265.016205 
	C228.208008,271.068878 229.575058,277.114136 230.880417,283.589111 
	C228.895966,283.691925 226.973221,283.365051 224.580063,282.606262 
	C222.451569,276.108856 220.793472,270.043365 219.135376,263.977905 
z"/>
<path fill="#6E3822" opacity="1.000000" stroke="none" 
	d="
M117.676178,188.176163 
	C119.745041,188.648575 121.548935,189.334641 123.747704,190.034424 
	C121.662201,195.237793 119.181831,200.427429 116.431343,205.822021 
	C113.530029,206.718399 111.027206,207.091385 110.022873,203.235748 
	C112.440636,198.057831 114.925926,193.223831 117.676178,188.176163 
z"/>
<path fill="#894C2F" opacity="1.000000" stroke="none" 
	d="
M87.949387,246.934692 
	C90.213707,247.023270 92.823746,242.950867 94.899849,247.772583 
	C93.145767,252.078476 91.436676,256.195160 89.205505,260.006165 
	C88.559891,261.108978 86.415916,261.334534 84.958839,261.962219 
	C84.275719,260.334564 82.741508,258.493958 83.084473,257.123016 
	C83.826599,254.156464 85.530373,251.430511 87.163284,248.140030 
	C87.692528,247.461853 87.847618,247.217056 87.951019,246.939514 
	C87.951019,246.939514 87.960899,246.947556 87.949387,246.934692 
z"/>
<path fill="#63301E" opacity="1.000000" stroke="none" 
	d="
M385.763916,189.679321 
	C383.791534,190.668289 381.735046,191.321274 379.305542,191.991943 
	C376.975006,188.256180 375.017456,184.502716 372.989685,180.396240 
	C374.435242,178.333740 375.950958,176.624268 377.780212,174.937225 
	C380.622467,179.754211 383.151123,184.548782 385.763916,189.679321 
z"/>
<path fill="#783F26" opacity="1.000000" stroke="none" 
	d="
M387.989075,210.377991 
	C389.999664,209.432770 392.080658,208.836487 394.496124,208.132385 
	C397.211029,212.760757 399.591461,217.496948 402.026703,222.591003 
	C400.515930,224.153961 398.950348,225.359070 397.142700,226.803589 
	C393.953613,221.604294 391.006561,216.165604 387.989075,210.377991 
z"/>
<path fill="#894C2F" opacity="1.000000" stroke="none" 
	d="
M406.992828,247.443420 
	C408.254913,246.532074 409.563721,245.978439 411.025482,245.360092 
	C411.025482,244.156631 411.025482,242.886322 411.032288,241.246796 
	C413.415039,245.394394 415.723145,249.948685 418.190155,254.415207 
	C419.909576,257.528259 419.726746,260.000000 415.873779,261.981476 
	C410.873718,258.701965 409.734314,252.732407 406.992828,247.443420 
z"/>
<path fill="#894C2F" opacity="1.000000" stroke="none" 
	d="
M270.548096,284.970032 
	C264.314087,285.283936 257.610107,285.635925 250.434875,285.988678 
	C256.668457,285.662323 263.373291,285.335205 270.548096,284.970032 
z"/>
<path fill="#59291B" opacity="1.000000" stroke="none" 
	d="
M310.625366,228.973221 
	C309.567444,229.621887 308.159302,230.305679 306.360901,230.984085 
	C307.405487,230.321915 308.840332,229.665131 310.625366,228.973221 
z"/>
<path fill="#59291B" opacity="1.000000" stroke="none" 
	d="
M315.638916,226.959869 
	C314.559448,227.609940 313.126831,228.296158 311.321838,228.976334 
	C312.394897,228.312210 313.840332,227.654114 315.638916,226.959869 
z"/>
<path fill="#6E3822" opacity="1.000000" stroke="none" 
	d="
M70.096771,298.348297 
	C70.961006,298.774414 71.953178,299.476776 72.975861,300.525818 
	C72.079155,300.123199 71.151939,299.373871 70.096771,298.348297 
z"/>
<path fill="#5D2C1B" opacity="1.000000" stroke="none" 
	d="
M368.905762,230.713715 
	C367.827057,230.531479 366.530609,230.095398 365.122803,229.320190 
	C366.236938,229.473999 367.462494,229.966934 368.905762,230.713715 
z"/>
<path fill="#894C2F" opacity="1.000000" stroke="none" 
	d="
M271.118958,279.476807 
	C271.158203,279.053070 271.565247,279.033112 271.768738,279.031494 
	C271.783203,280.825134 271.594238,282.620392 271.168457,284.717468 
	C270.981049,283.313049 271.030396,281.606781 271.118958,279.476807 
z"/>
<path fill="#723922" opacity="1.000000" stroke="none" 
	d="
M272.079407,274.441650 
	C272.179810,274.928497 272.226807,275.775543 272.039612,276.799255 
	C271.878937,276.251221 271.952454,275.526520 272.079407,274.441650 
z"/>
<path fill="#59291B" opacity="1.000000" stroke="none" 
	d="
M305.702972,231.009155 
	C305.513641,231.273911 305.032990,231.582138 304.262085,231.928284 
	C304.451752,231.661667 304.931702,231.357147 305.702972,231.009155 
z"/>
<path fill="#5D2C1B" opacity="1.000000" stroke="none" 
	d="
M364.843567,228.761719 
	C364.499054,228.826019 363.983032,228.664078 363.268158,228.316589 
	C363.603577,228.265839 364.137787,228.400650 364.843567,228.761719 
z"/>
<path fill="#82462A" opacity="1.000000" stroke="none" 
	d="
M87.729660,247.031372 
	C87.847618,247.217056 87.692528,247.461853 87.321274,247.817322 
	C87.087250,247.603241 87.204414,247.324066 87.729660,247.031372 
z"/>
<path fill="#6E3822" opacity="1.000000" stroke="none" 
	d="
M69.195099,297.265015 
	C69.401901,297.205658 69.596741,297.411285 69.849121,297.843384 
	C69.621422,297.963501 69.380249,297.783569 69.195099,297.265015 
z"/>
<path fill="#6E3822" opacity="1.000000" stroke="none" 
	d="
M223.802612,258.699829 
	C223.603989,258.765991 223.393555,258.558899 223.117477,258.111084 
	C223.312088,258.022949 223.558411,258.208405 223.802612,258.699829 
z"/>
<path fill="#6E3822" opacity="1.000000" stroke="none" 
	d="
M224.787872,260.693695 
	C224.590530,260.751099 224.383682,260.535126 224.119873,260.071777 
	C224.306747,260.004852 224.545242,260.203491 224.787872,260.693695 
z"/>
<path fill="#8D4E2F" opacity="1.000000" stroke="none" 
	d="
M118.971115,337.276978 
	C119.121391,337.258667 119.398041,337.480896 119.818642,337.928864 
	C119.674225,337.942230 119.385849,337.729889 118.971115,337.276978 
z"/>
<path fill="#EEC79F" opacity="1.000000" stroke="none" 
	d="
M218.938721,263.691895 
	C220.793472,270.043365 222.451569,276.108856 224.215195,282.579590 
	C225.267853,293.027832 223.617401,302.682343 219.932037,312.403625 
	C214.685333,319.610046 209.482407,326.451965 204.116028,333.578064 
	C191.117142,343.597656 176.910049,349.065369 160.537506,348.047607 
	C147.891953,347.261536 136.765015,342.603088 126.336479,335.075073 
	C118.549873,327.970367 112.147530,320.205566 108.105957,310.289551 
	C106.688606,303.922028 105.462639,297.851501 104.117546,291.389221 
	C103.486923,282.631256 105.707047,274.742279 108.249557,266.504944 
	C112.810410,259.731079 117.329475,253.354523 121.991234,246.690094 
	C131.076385,239.002594 140.873764,233.284592 152.422287,231.017014 
	C171.204788,227.329071 187.882019,232.212204 203.309052,243.623520 
	C208.661255,250.334869 213.701660,256.870392 218.938721,263.691895 
M157.926346,303.331085 
	C156.639374,307.789581 155.054169,312.193909 154.228409,316.736237 
	C153.942383,318.309662 155.078583,321.111786 156.380325,321.791443 
	C158.724411,323.015350 160.766632,321.655304 161.499313,318.826996 
	C162.413559,315.297699 163.455948,311.801361 164.457352,308.294922 
	C168.233841,295.071045 172.056656,281.860229 175.760010,268.615936 
	C176.448227,266.154724 177.665268,263.053558 173.910049,261.979706 
	C170.119843,260.895844 169.100891,263.816437 168.328049,266.690491 
	C168.198807,267.171143 168.108917,267.662659 167.971329,268.140686 
	C164.671722,279.605042 161.368073,291.068207 157.926346,303.331085 
M139.892014,288.457184 
	C142.107666,286.213318 144.680130,284.206604 146.393295,281.628815 
	C147.293213,280.274719 146.688919,277.920929 146.763885,276.018616 
	C144.878128,276.141449 142.365372,275.533478 141.218460,276.517517 
	C136.947266,280.181946 133.136444,284.381134 129.129349,288.355927 
	C126.633835,290.831360 126.695869,293.235779 129.165649,295.682800 
	C133.057495,299.538727 136.730499,303.652710 140.921753,307.146942 
	C142.198868,308.211639 144.875778,307.597351 146.911591,307.751984 
	C146.652237,305.726105 147.091049,303.133545 145.996735,301.785431 
	C143.216125,298.360046 139.749176,295.491791 136.370209,292.219635 
	C137.623489,290.858185 138.497894,289.908325 139.892014,288.457184 
M182.285980,304.784790 
	C183.835220,309.594696 186.020355,310.373077 189.528976,307.102814 
	C193.412262,303.483368 197.037262,299.588104 200.880569,295.923981 
	C203.825485,293.116333 203.598679,290.646332 200.724289,287.932770 
	C196.984375,284.402130 193.394119,280.711670 189.774811,277.054993 
	C187.874557,275.135101 185.859482,273.600891 183.453629,276.096039 
	C181.054153,278.584503 182.744690,280.569641 184.586136,282.463654 
	C187.651840,285.616882 190.673279,288.813141 193.566833,291.838104 
	C189.590027,296.243103 186.050262,300.164001 182.285980,304.784790 
z"/>
<path fill="#EEC79F" opacity="1.000000" stroke="none" 
	d="
M388.774292,257.779907 
	C391.409363,264.185303 393.784149,270.379333 396.405060,276.849731 
	C396.911530,283.454926 397.171906,289.783752 397.418671,296.576782 
	C395.891022,302.277710 394.376953,307.514404 392.762054,313.091858 
	C387.253632,323.551819 380.361420,332.356964 370.237091,338.765930 
	C352.681244,348.794159 334.657806,351.152679 315.373413,344.120697 
	C308.867065,340.158539 302.738159,336.218018 296.305298,332.136353 
	C288.392609,324.995575 283.486603,316.298737 279.932251,306.316284 
	C279.162872,297.592041 278.549591,289.206573 277.896332,280.402161 
	C279.293243,270.259918 283.506470,261.734192 289.275024,253.495026 
	C294.190735,248.796967 298.973419,244.425934 303.982910,239.834106 
	C319.577454,230.016983 336.084686,227.207321 353.546417,232.113678 
	C359.208344,233.704559 364.470459,236.718307 370.242859,239.159912 
	C376.551483,245.348587 382.532745,251.458588 388.774292,257.779907 
M350.050079,263.863159 
	C346.519104,260.671631 344.125946,260.979950 342.876465,265.208221 
	C337.855499,282.199249 332.926575,299.219666 328.271545,316.313049 
	C327.835999,317.912445 329.051788,321.127686 330.397247,321.800751 
	C333.115540,323.160492 334.866882,321.140320 335.645142,318.312714 
	C337.621979,311.130402 339.778229,303.997223 341.732544,296.808990 
	C344.637817,286.123108 347.430969,275.406738 350.050079,263.863159 
M302.011444,294.352997 
	C306.088562,298.487701 310.163696,302.624420 314.243744,306.756226 
	C316.121185,308.657501 318.253143,310.211304 320.678192,307.907104 
	C323.384399,305.335724 321.624451,303.088715 319.563843,301.152863 
	C316.458038,298.235046 313.279510,295.394623 309.345886,291.803833 
	C313.648010,287.902771 317.327606,285.003174 320.376312,281.547119 
	C321.346771,280.447021 320.640045,277.867432 320.700775,275.964844 
	C318.811523,276.124847 316.310883,275.571381 315.142517,276.572601 
	C310.869049,280.234619 306.886658,284.278412 303.138214,288.484589 
	C302.052734,289.702606 302.117615,291.945801 302.011444,294.352997 
M366.304230,290.467651 
	C365.998474,291.785370 366.094788,293.451019 365.311829,294.355804 
	C362.928192,297.110535 359.887543,299.339691 357.760071,302.253418 
	C356.817383,303.544556 357.454712,305.989288 357.374817,307.910370 
	C359.299042,307.777863 361.860168,308.387726 363.033997,307.380585 
	C367.432648,303.606689 371.396179,299.322388 375.485626,295.192596 
	C377.632904,293.024200 377.539825,290.838348 375.374268,288.686584 
	C371.251556,284.590210 367.317047,280.279419 362.929749,276.491608 
	C361.798676,275.515106 359.274445,276.152222 357.390228,276.048035 
	C357.522583,277.945496 356.971100,280.347504 357.924255,281.639374 
	C360.170105,284.683197 363.133362,287.197693 366.304230,290.467651 
z"/>
<path fill="#EEC79F" opacity="1.000000" stroke="none" 
	d="
M427.970978,292.118774 
	C425.523193,295.599182 422.361786,296.753174 418.432343,296.445892 
	C413.719757,296.077362 408.984985,295.992859 404.035889,295.387085 
	C403.811920,290.741089 403.811920,286.493378 403.811920,281.874329 
	C410.460785,281.874329 416.512543,281.508270 422.495239,281.993683 
	C427.030457,282.361664 428.618103,285.772064 427.970978,292.118774 
z"/>
<path fill="#EEC79F" opacity="1.000000" stroke="none" 
	d="
M98.022690,291.534698 
	C97.983803,293.275146 97.867424,294.560516 97.706985,296.332581 
	C91.745132,296.332581 85.951233,296.662292 80.214569,296.230865 
	C75.408928,295.869476 73.504128,292.478516 73.752205,287.400513 
	C75.166306,283.292664 77.947044,281.608124 81.825043,281.598907 
	C86.957497,281.586731 92.089996,281.595886 97.945190,281.595886 
	C97.945190,284.931183 97.945190,288.005402 98.022690,291.534698 
z"/>
<path fill="#0D0806" opacity="1.000000" stroke="none" 
	d="
M157.995758,302.931335 
	C161.368073,291.068207 164.671722,279.605042 167.971329,268.140686 
	C168.108917,267.662659 168.198807,267.171143 168.328049,266.690491 
	C169.100891,263.816437 170.119843,260.895844 173.910049,261.979706 
	C177.665268,263.053558 176.448227,266.154724 175.760010,268.615936 
	C172.056656,281.860229 168.233841,295.071045 164.457352,308.294922 
	C163.455948,311.801361 162.413559,315.297699 161.499313,318.826996 
	C160.766632,321.655304 158.724411,323.015350 156.380325,321.791443 
	C155.078583,321.111786 153.942383,318.309662 154.228409,316.736237 
	C155.054169,312.193909 156.639374,307.789581 157.995758,302.931335 
z"/>
<path fill="#0D0806" opacity="1.000000" stroke="none" 
	d="
M139.632172,288.707825 
	C138.497894,289.908325 137.623489,290.858185 136.370209,292.219635 
	C139.749176,295.491791 143.216125,298.360046 145.996735,301.785431 
	C147.091049,303.133545 146.652237,305.726105 146.911591,307.752014 
	C144.875778,307.597351 142.198868,308.211639 140.921753,307.146942 
	C136.730499,303.652710 133.057495,299.538727 129.165649,295.682800 
	C126.695869,293.235779 126.633835,290.831360 129.129349,288.355927 
	C133.136444,284.381134 136.947266,280.181946 141.218460,276.517517 
	C142.365372,275.533478 144.878128,276.141449 146.763885,276.018616 
	C146.688919,277.920929 147.293213,280.274719 146.393295,281.628815 
	C144.680130,284.206604 142.107666,286.213318 139.632172,288.707825 
z"/>
<path fill="#0D0806" opacity="1.000000" stroke="none" 
	d="
M182.398224,304.434875 
	C186.050262,300.164001 189.590027,296.243103 193.566833,291.838104 
	C190.673279,288.813141 187.651840,285.616882 184.586136,282.463654 
	C182.744690,280.569641 181.054153,278.584503 183.453629,276.096039 
	C185.859482,273.600891 187.874557,275.135101 189.774811,277.054993 
	C193.394119,280.711670 196.984375,284.402130 200.724289,287.932770 
	C203.598679,290.646332 203.825485,293.116333 200.880569,295.923981 
	C197.037262,299.588104 193.412262,303.483368 189.528976,307.102814 
	C186.020355,310.373077 183.835220,309.594696 182.398224,304.434875 
z"/>
<path fill="#0B0704" opacity="1.000000" stroke="none" 
	d="
M350.160950,264.283264 
	C347.430969,275.406738 344.637817,286.123108 341.732544,296.808990 
	C339.778229,303.997223 337.621979,311.130402 335.645142,318.312714 
	C334.866882,321.140320 333.115540,323.160492 330.397247,321.800751 
	C329.051788,321.127686 327.835999,317.912445 328.271545,316.313049 
	C332.926575,299.219666 337.855499,282.199249 342.876465,265.208221 
	C344.125946,260.979950 346.519104,260.671631 350.160950,264.283264 
z"/>
<path fill="#0D0806" opacity="1.000000" stroke="none" 
	d="
M301.833282,294.036011 
	C302.117615,291.945801 302.052734,289.702606 303.138214,288.484589 
	C306.886658,284.278412 310.869049,280.234619 315.142517,276.572601 
	C316.310883,275.571381 318.811523,276.124847 320.700775,275.964844 
	C320.640045,277.867432 321.346771,280.447021 320.376312,281.547119 
	C317.327606,285.003174 313.648010,287.902771 309.345886,291.803833 
	C313.279510,295.394623 316.458038,298.235046 319.563843,301.152863 
	C321.624451,303.088715 323.384399,305.335724 320.678192,307.907104 
	C318.253143,310.211304 316.121185,308.657501 314.243744,306.756226 
	C310.163696,302.624420 306.088562,298.487701 301.833282,294.036011 
z"/>
<path fill="#0D0806" opacity="1.000000" stroke="none" 
	d="
M366.055298,290.197021 
	C363.133362,287.197693 360.170105,284.683197 357.924255,281.639374 
	C356.971100,280.347504 357.522583,277.945496 357.390228,276.048035 
	C359.274445,276.152222 361.798676,275.515106 362.929749,276.491608 
	C367.317047,280.279419 371.251556,284.590210 375.374268,288.686584 
	C377.539825,290.838348 377.632904,293.024200 375.485626,295.192596 
	C371.396179,299.322388 367.432648,303.606689 363.033997,307.380585 
	C361.860168,308.387726 359.299042,307.777863 357.374817,307.910370 
	C357.454712,305.989288 356.817383,303.544556 357.760071,302.253418 
	C359.887543,299.339691 362.928192,297.110535 365.311829,294.355804 
	C366.094788,293.451019 365.998474,291.785370 366.055298,290.197021 
z"/>
</svg>